<?xml version="1.0" encoding="UTF-8" standalone="no"?>
<!-- Created with Inkscape (http://www.inkscape.org/) -->

<svg
   width="10mm"
   height="10mm"
   viewBox="0 0 10 10"
   version="1.1"
   id="svg1"
   inkscape:version="1.3.2 (1:1.3.2+202311252150+091e20ef0f)"
   sodipodi:docname="favicon.svg"
   xml:space="preserve"
   xmlns:inkscape="http://www.inkscape.org/namespaces/inkscape"
   xmlns:sodipodi="http://sodipodi.sourceforge.net/DTD/sodipodi-0.dtd"
   xmlns="http://www.w3.org/2000/svg"
   xmlns:svg="http://www.w3.org/2000/svg"><sodipodi:namedview
     id="namedview1"
     pagecolor="#ffffff"
     bordercolor="#000000"
     borderopacity="0.25"
     inkscape:showpageshadow="2"
     inkscape:pageopacity="0.0"
     inkscape:pagecheckerboard="0"
     inkscape:deskcolor="#d1d1d1"
     inkscape:document-units="mm"
     inkscape:zoom="21.457708"
     inkscape:cx="20.20253"
     inkscape:cy="13.445052"
     inkscape:window-width="1920"
     inkscape:window-height="1011"
     inkscape:window-x="0"
     inkscape:window-y="0"
     inkscape:window-maximized="1"
     inkscape:current-layer="layer1"
     showgrid="false" /><defs
     id="defs1" /><g
     inkscape:label="Layer 1"
     inkscape:groupmode="layer"
     id="layer1"><path
       style="fill:none;stroke:#000000;stroke-width:0.4;stroke-linecap:round;stroke-linejoin:round;stroke-miterlimit:10;stroke-dasharray:none"
       d="M 0.39139601,9.5484936 C 0.41422951,9.3556806 0.95720912,9.2792225 1.0320521,9.142436 1.1068952,9.0056497 1.3766345,8.367475 1.4551815,8.2653692 1.5337286,8.1632637 1.7091404,8.0606199 1.7543506,7.8811955 1.7995608,7.7017711 1.9262612,7.3667953 1.9911081,7.3667953 c 0.064847,0 0.3284467,-0.06565 0.471587,-0.3122318 0.1431406,-0.2465811 0.1203578,-0.070814 0.3004885,-0.070814 0.1801308,0 0.3441256,0.00269 0.4685932,-0.3578271 0.124468,-0.3605152 0.3149172,-0.9343293 0.3149172,-1.244303 0,-0.3099736 -0.1070819,-0.5575224 0.1051171,-0.6637148 0.2121989,-0.1061926 0.4327701,-0.088987 0.5757585,0.0321 0.142988,0.1210858 0.3282435,0.1061925 0.4958918,-0.047263 0.1676485,-0.1534544 0.3361085,-0.060651 0.4444915,-0.060651 0.1083829,0 0.4124229,-0.2406126 0.5142602,-0.4065415 C 5.7840504,4.0696221 5.9483495,3.8387954 6.1625783,3.7505078 6.3768068,3.6622205 6.4319116,3.2581524 6.532328,3.1920715 6.6327447,3.1259904 6.7817202,3.0022697 6.9413515,2.9171009 7.1009828,2.8319319 7.4416578,2.6051014 7.5034098,2.4098605 7.5651617,2.2146193 7.7176383,1.7835599 7.7176383,1.7169948 c 0,-0.066564 0.1741433,0.3741728 0.1741433,0.3741728 l 0.3488443,-0.061242 c 0,0 0.083773,0.2820679 0.1906849,0.2578184 C 8.538222,2.2634947 8.7501169,2.2442995 8.8483006,2.0913827 8.9464843,1.938466 9.4771341,1.1508157 9.4771341,1.1508157 l 0.13147,-0.6993091"
       id="path1" /></g></svg>
